<svg xmlns="http://www.w3.org/2000/svg" width="1088" height="112" class="svgbob"><style>.svgbob line, .svgbob path, .svgbob circle, .svgbob rect, .svgbob polygon {
    stroke: #667eea;
    stroke-width: 3;
    stroke-opacity: 1;
    fill-opacity: 1;
    stroke-linecap: round;
    stroke-linejoin: miter;
}
.svgbob text {
    white-space: pre;
    fill: black;
    font-family: Iosevka Fixed, monospace;
    font-size: 14px;
}
.svgbob rect.backdrop {
    stroke: none;
    fill: white;
}
.svgbob .broken {
    stroke-dasharray: 8;
}
.svgbob .filled {
    fill: black;
}
.svgbob .bg_filled {
    fill: white;
    stroke-width: 1;
}
.svgbob .nofill {
    fill: white;
}
.svgbob .end_marked_arrow {
    marker-end: url(#arrow);
}
.svgbob .start_marked_arrow {
    marker-start: url(#arrow);
}
.svgbob .end_marked_diamond {
    marker-end: url(#diamond);
}
.svgbob .start_marked_diamond {
    marker-start: url(#diamond);
}
.svgbob .end_marked_circle {
    marker-end: url(#circle);
}
.svgbob .start_marked_circle {
    marker-start: url(#circle);
}
.svgbob .end_marked_open_circle {
    marker-end: url(#open_circle);
}
.svgbob .start_marked_open_circle {
    marker-start: url(#open_circle);
}
.svgbob .end_marked_big_open_circle {
    marker-end: url(#big_open_circle);
}
.svgbob .start_marked_big_open_circle {
    marker-start: url(#big_open_circle);
}<!--separator--></style><defs><marker id="arrow" viewBox="-2 -2 8 8" refX="4" refY="2" markerWidth="7" markerHeight="7" orient="auto-start-reverse"><polygon points="0,0 0,4 4,2 0,0"></polygon></marker><marker id="diamond" viewBox="-2 -2 8 8" refX="4" refY="2" markerWidth="7" markerHeight="7" orient="auto-start-reverse"><polygon points="0,2 2,0 4,2 2,4 0,2"></polygon></marker><marker id="circle" viewBox="0 0 8 8" refX="4" refY="4" markerWidth="7" markerHeight="7" orient="auto-start-reverse"><circle cx="4" cy="4" r="2" class="filled"></circle></marker><marker id="open_circle" viewBox="0 0 8 8" refX="4" refY="4" markerWidth="7" markerHeight="7" orient="auto-start-reverse"><circle cx="4" cy="4" r="2" class="bg_filled"></circle></marker><marker id="big_open_circle" viewBox="0 0 8 8" refX="4" refY="4" markerWidth="7" markerHeight="7" orient="auto-start-reverse"><circle cx="4" cy="4" r="3" class="bg_filled"></circle></marker></defs><rect class="backdrop" x="0" y="0" width="1088" height="112"></rect><text x="58" y="60" >'</text><text x="170" y="60" >'</text><text x="394" y="60" >'</text><text x="426" y="76" >|</text><text x="226" y="92" >,</text><line x1="696" y1="48" x2="704" y2="48" class="solid"></line><line x1="504" y1="64" x2="512" y2="64" class="solid"></line><text x="634" y="60" >`</text><line x1="672" y1="64" x2="680" y2="64" class="solid"></line><text x="706" y="60" >'</text><line x1="604" y1="64" x2="604" y2="80" class="solid"></line><text x="634" y="92" >,</text><line x1="1040" y1="48" x2="1048" y2="48" class="solid"></line><text x="922" y="60" >`</text><line x1="1016" y1="64" x2="1024" y2="64" class="solid"></line><text x="1050" y="60" >'</text><text x="874" y="92" >,</text><text x="922" y="92" >,</text><g><line x1="4" y1="16" x2="52" y2="16" class="solid"></line><line x1="4" y1="16" x2="4" y2="32" class="solid"></line><line x1="4" y1="32" x2="20" y2="32" class="solid"></line><line x1="20" y1="32" x2="20" y2="80" class="solid"></line><line x1="8" y1="80" x2="20" y2="80" class="solid"></line><line x1="8" y1="80" x2="16" y2="96" class="solid"></line><line x1="36" y1="32" x2="52" y2="32" class="solid"></line><line x1="52" y1="16" x2="52" y2="32" class="solid"></line><line x1="36" y1="32" x2="36" y2="80" class="solid"></line><line x1="124" y1="16" x2="140" y2="16" class="solid"></line><line x1="124" y1="16" x2="124" y2="64" class="solid"></line><line x1="140" y1="16" x2="140" y2="48" class="solid"></line><line x1="96" y1="48" x2="124" y2="48" class="solid"></line><line x1="140" y1="48" x2="168" y2="48" class="solid"></line><line x1="104" y1="64" x2="124" y2="64" class="solid"></line><line x1="120" y1="64" x2="136" y2="96" class="solid"></line><line x1="64" y1="48" x2="80" y2="48" class="solid"></line><line x1="80" y1="48" x2="92" y2="72" class="solid"></line><line x1="96" y1="48" x2="88" y2="64" class="solid"></line><line x1="92" y1="72" x2="92" y2="96" class="solid"></line><line x1="92" y1="80" x2="112" y2="80" class="solid"></line><line x1="60" y1="64" x2="76" y2="64" class="solid"></line><line x1="60" y1="64" x2="60" y2="96" class="solid"></line><line x1="76" y1="64" x2="76" y2="96" class="solid"></line><line x1="16" y1="96" x2="60" y2="96" class="solid"></line><line x1="48" y1="80" x2="40" y2="96" class="solid"></line><line x1="76" y1="96" x2="120" y2="96" class="solid"></line><line x1="128" y1="80" x2="120" y2="96" class="solid"></line><line x1="136" y1="64" x2="156" y2="64" class="solid"></line><line x1="156" y1="48" x2="156" y2="96" class="solid"></line><line x1="140" y1="64" x2="140" y2="80" class="solid"></line><line x1="140" y1="80" x2="156" y2="80" class="solid"></line><line x1="284" y1="16" x2="300" y2="16" class="solid"></line><line x1="284" y1="16" x2="284" y2="72" class="solid"></line><line x1="300" y1="16" x2="300" y2="48" class="solid"></line><line x1="256" y1="48" x2="284" y2="48" class="solid"></line><line x1="300" y1="48" x2="332" y2="48" class="solid"></line><line x1="256" y1="48" x2="248" y2="64" class="solid"></line><line x1="264" y1="64" x2="284" y2="64" class="solid"></line><line x1="332" y1="48" x2="332" y2="72" class="solid"></line><path d="M 264,64 A 16,16 0,0,0 264,80" class="nofill"></path><line x1="264" y1="80" x2="284" y2="80" class="solid"></line><line x1="284" y1="72" x2="296" y2="96" class="solid"></line><line x1="332" y1="72" x2="344" y2="96" class="solid"></line><line x1="380" y1="48" x2="392" y2="48" class="solid"></line><line x1="380" y1="48" x2="380" y2="72" class="solid"></line><line x1="380" y1="72" x2="368" y2="96" class="solid"></line><line x1="344" y1="96" x2="368" y2="96" class="solid"></line><line x1="296" y1="64" x2="316" y2="64" class="solid"></line><line x1="316" y1="48" x2="316" y2="96" class="solid"></line><line x1="300" y1="64" x2="300" y2="80" class="solid"></line><line x1="300" y1="80" x2="316" y2="80" class="solid"></line><line x1="296" y1="96" x2="332" y2="96" class="solid"></line><line x1="332" y1="80" x2="332" y2="96" class="solid"></line><line x1="176" y1="48" x2="212" y2="48" class="solid"></line><line x1="212" y1="48" x2="212" y2="80" class="solid"></line><line x1="228" y1="48" x2="244" y2="48" class="solid"></line><line x1="228" y1="48" x2="228" y2="80" class="solid"></line><line x1="244" y1="48" x2="244" y2="72" class="solid"></line><line x1="212" y1="80" x2="228" y2="80" class="solid"></line><line x1="244" y1="72" x2="256" y2="96" class="solid"></line><line x1="256" y1="96" x2="284" y2="96" class="solid"></line><line x1="284" y1="80" x2="284" y2="96" class="solid"></line><line x1="172" y1="64" x2="196" y2="64" class="solid"></line><line x1="196" y1="48" x2="196" y2="72" class="solid"></line><line x1="172" y1="64" x2="172" y2="96" class="solid"></line><line x1="196" y1="72" x2="208" y2="96" class="solid"></line><line x1="136" y1="96" x2="172" y2="96" class="solid"></line><line x1="208" y1="96" x2="224" y2="96" class="solid"></line></g><g><line x1="320" y1="16" x2="328" y2="16" class="solid"></line><path d="M 320,16 A 16,16 0,0,0 320,32" class="nofill"></path><line x1="320" y1="32" x2="328" y2="32" class="solid"></line><path d="M 328,16 A 16,16 0,0,1 328,32" class="nofill"></path></g><g><line x1="44" y1="48" x2="56" y2="48" class="solid"></line><line x1="44" y1="48" x2="44" y2="80" class="solid"></line></g><g><line x1="344" y1="48" x2="368" y2="48" class="solid"></line><line x1="344" y1="48" x2="336" y2="64" class="solid"></line><line x1="368" y1="48" x2="376" y2="64" class="solid"></line></g><g><line x1="400" y1="48" x2="416" y2="48" class="solid"></line><line x1="416" y1="48" x2="424" y2="64" class="solid"></line></g><g><line x1="352" y1="64" x2="360" y2="64" class="solid"></line><path d="M 352,64 A 16,16 0,0,0 352,80" class="nofill"></path><line x1="352" y1="80" x2="360" y2="80" class="solid"></line><path d="M 360,64 A 16,16 0,0,1 360,80" class="nofill"></path></g><g><line x1="396" y1="64" x2="412" y2="64" class="solid"></line><line x1="396" y1="64" x2="396" y2="96" class="solid"></line><line x1="412" y1="64" x2="412" y2="96" class="solid"></line><line x1="412" y1="96" x2="428" y2="96" class="solid"></line><line x1="428" y1="80" x2="428" y2="96" class="solid"></line><line x1="380" y1="80" x2="380" y2="96" class="solid"></line><line x1="380" y1="96" x2="396" y2="96" class="solid"></line></g><g><line x1="232" y1="96" x2="244" y2="96" class="solid"></line><line x1="244" y1="80" x2="244" y2="96" class="solid"></line></g><g><line x1="440" y1="16" x2="488" y2="16" class="solid"></line><line x1="444" y1="16" x2="444" y2="96" class="solid"></line><line x1="488" y1="16" x2="492" y2="24" class="solid"></line><line x1="492" y1="24" x2="492" y2="48" class="solid"></line><line x1="492" y1="48" x2="520" y2="48" class="solid"></line><line x1="496" y1="48" x2="472" y2="96" class="solid"></line><line x1="520" y1="48" x2="528" y2="64" class="solid"></line><line x1="444" y1="96" x2="472" y2="96" class="solid"></line><line x1="536" y1="48" x2="560" y2="48" class="solid"></line><line x1="536" y1="48" x2="524" y2="72" class="solid"></line><line x1="504" y1="80" x2="524" y2="80" class="solid"></line><line x1="524" y1="72" x2="524" y2="96" class="solid"></line><line x1="488" y1="80" x2="496" y2="96" class="solid"></line><line x1="496" y1="96" x2="524" y2="96" class="solid"></line></g><g><line x1="636" y1="16" x2="652" y2="16" class="solid"></line><line x1="636" y1="16" x2="636" y2="48" class="solid"></line><line x1="652" y1="16" x2="652" y2="72" class="solid"></line><line x1="616" y1="48" x2="636" y2="48" class="solid"></line><line x1="616" y1="48" x2="592" y2="96" class="solid"></line><line x1="652" y1="72" x2="664" y2="96" class="solid"></line><line x1="568" y1="48" x2="592" y2="48" class="solid"></line><line x1="592" y1="48" x2="616" y2="96" class="solid"></line><line x1="616" y1="96" x2="632" y2="96" class="solid"></line><line x1="544" y1="64" x2="560" y2="64" class="solid"></line><line x1="568" y1="48" x2="560" y2="64" class="solid"></line><path d="M 544,64 A 16,16 0,0,0 544,80" class="nofill"></path><line x1="544" y1="80" x2="556" y2="80" class="solid"></line><line x1="556" y1="64" x2="556" y2="72" class="solid"></line><line x1="556" y1="72" x2="568" y2="96" class="solid"></line><line x1="528" y1="80" x2="536" y2="96" class="solid"></line><line x1="536" y1="96" x2="592" y2="96" class="solid"></line><line x1="664" y1="48" x2="688" y2="48" class="solid"></line><line x1="664" y1="48" x2="656" y2="64" class="solid"></line><line x1="688" y1="48" x2="696" y2="64" class="solid"></line><line x1="696" y1="64" x2="692" y2="72" class="solid"></line><line x1="712" y1="48" x2="732" y2="48" class="solid"></line><line x1="708" y1="64" x2="732" y2="64" class="solid"></line><line x1="732" y1="48" x2="732" y2="64" class="solid"></line><line x1="708" y1="64" x2="708" y2="96" class="solid"></line><line x1="672" y1="80" x2="692" y2="80" class="solid"></line><line x1="692" y1="72" x2="692" y2="96" class="solid"></line><line x1="664" y1="96" x2="708" y2="96" class="solid"></line></g><g><line x1="460" y1="32" x2="476" y2="32" class="solid"></line><line x1="460" y1="32" x2="460" y2="80" class="solid"></line><line x1="476" y1="32" x2="476" y2="56" class="solid"></line><line x1="476" y1="56" x2="464" y2="80" class="solid"></line></g><g><line x1="576" y1="64" x2="584" y2="64" class="solid"></line><path d="M 576,64 A 16,16 0,0,0 576,80" class="nofill"></path><line x1="576" y1="80" x2="584" y2="80" class="solid"></line><path d="M 584,64 A 16,16 0,0,1 584,80" class="nofill"></path></g><g><line x1="624" y1="64" x2="636" y2="64" class="solid"></line><path d="M 624,64 A 16,16 0,0,0 624,80" class="nofill"></path><line x1="624" y1="80" x2="636" y2="80" class="solid"></line><line x1="636" y1="64" x2="636" y2="80" class="solid"></line></g><g><line x1="640" y1="96" x2="652" y2="96" class="solid"></line><line x1="652" y1="80" x2="652" y2="96" class="solid"></line></g><g><line x1="748" y1="16" x2="764" y2="16" class="solid"></line><line x1="748" y1="16" x2="748" y2="64" class="solid"></line><line x1="764" y1="16" x2="764" y2="64" class="solid"></line></g><g><line x1="780" y1="16" x2="792" y2="16" class="solid"></line><line x1="780" y1="16" x2="780" y2="64" class="solid"></line></g><g><line x1="800" y1="16" x2="808" y2="16" class="solid"></line><path d="M 796,16 A 12,12 0,0,0 796,32" class="nofill"></path><line x1="796" y1="32" x2="808" y2="32" class="solid"></line><path d="M 808,16 A 16,16 0,0,1 808,32" class="nofill"></path><line x1="796" y1="32" x2="796" y2="64" class="solid"></line><line x1="796" y1="48" x2="808" y2="48" class="solid"></line></g><g><line x1="940" y1="16" x2="952" y2="16" class="solid"></line><line x1="940" y1="16" x2="940" y2="96" class="solid"></line><line x1="928" y1="48" x2="940" y2="48" class="solid"></line><line x1="960" y1="16" x2="968" y2="16" class="solid"></line><path d="M 956,16 A 12,12 0,0,0 956,32" class="nofill"></path><line x1="956" y1="32" x2="968" y2="32" class="solid"></line><path d="M 968,16 A 16,16 0,0,1 968,32" class="nofill"></path><line x1="956" y1="32" x2="956" y2="96" class="solid"></line><line x1="956" y1="48" x2="1032" y2="48" class="solid"></line><line x1="972" y1="48" x2="972" y2="80" class="solid"></line><line x1="972" y1="64" x2="984" y2="64" class="solid"></line><line x1="1008" y1="48" x2="992" y2="80" class="solid"></line><line x1="1032" y1="48" x2="1040" y2="64" class="solid"></line><line x1="984" y1="64" x2="968" y2="96" class="solid"></line><line x1="1040" y1="64" x2="1036" y2="72" class="solid"></line><line x1="1056" y1="48" x2="1076" y2="48" class="solid"></line><line x1="1052" y1="64" x2="1076" y2="64" class="solid"></line><line x1="1076" y1="48" x2="1076" y2="64" class="solid"></line><line x1="1052" y1="64" x2="1052" y2="96" class="solid"></line><line x1="1016" y1="80" x2="1036" y2="80" class="solid"></line><line x1="1036" y1="72" x2="1036" y2="96" class="solid"></line><line x1="928" y1="96" x2="1052" y2="96" class="solid"></line><line x1="1000" y1="80" x2="1008" y2="96" class="solid"></line></g><g><line x1="816" y1="48" x2="860" y2="48" class="solid"></line><line x1="816" y1="48" x2="808" y2="64" class="solid"></line><line x1="860" y1="48" x2="860" y2="80" class="solid"></line><line x1="808" y1="64" x2="812" y2="72" class="solid"></line><line x1="812" y1="72" x2="812" y2="96" class="solid"></line><line x1="812" y1="80" x2="832" y2="80" class="solid"></line><line x1="876" y1="48" x2="892" y2="48" class="solid"></line><line x1="876" y1="48" x2="876" y2="80" class="solid"></line><line x1="892" y1="48" x2="892" y2="72" class="solid"></line><line x1="860" y1="80" x2="876" y2="80" class="solid"></line><line x1="892" y1="72" x2="904" y2="96" class="solid"></line><line x1="904" y1="96" x2="920" y2="96" class="solid"></line><line x1="824" y1="64" x2="844" y2="64" class="solid"></line><line x1="844" y1="48" x2="844" y2="64" class="solid"></line><line x1="840" y1="64" x2="856" y2="96" class="solid"></line><line x1="856" y1="96" x2="872" y2="96" class="solid"></line><line x1="800" y1="64" x2="796" y2="72" class="solid"></line><line x1="796" y1="72" x2="796" y2="96" class="solid"></line><line x1="796" y1="96" x2="840" y2="96" class="solid"></line><line x1="848" y1="80" x2="840" y2="96" class="solid"></line></g><g><line x1="904" y1="48" x2="920" y2="48" class="solid"></line><line x1="904" y1="48" x2="896" y2="64" class="solid"></line></g><g><line x1="912" y1="64" x2="924" y2="64" class="solid"></line><path d="M 912,64 A 16,16 0,0,0 912,80" class="nofill"></path><line x1="912" y1="80" x2="924" y2="80" class="solid"></line><line x1="924" y1="64" x2="924" y2="80" class="solid"></line></g><g><line x1="744" y1="64" x2="760" y2="96" class="solid"></line><line x1="760" y1="96" x2="784" y2="96" class="solid"></line><line x1="792" y1="80" x2="784" y2="96" class="solid"></line></g><g><line x1="760" y1="64" x2="768" y2="80" class="solid"></line><line x1="768" y1="80" x2="776" y2="80" class="solid"></line><line x1="784" y1="64" x2="776" y2="80" class="solid"></line></g><g><line x1="880" y1="96" x2="892" y2="96" class="solid"></line><line x1="892" y1="80" x2="892" y2="96" class="solid"></line></g></svg>